<mxfile host="app.diagrams.net" modified="2024-05-25T18:51:55.223Z" agent="Mozilla/5.0 (Windows NT 10.0; Win64; x64) AppleWebKit/537.36 (KHTML, like Gecko) Chrome/125.0.0.0 Safari/537.36" etag="Dr8ah0aT3vm88cqBjNsZ" version="24.4.8" type="github">
  <diagram name="Page-1" id="mdA-MF9aF8_zW1rj7i7V">
    <mxGraphModel dx="921" dy="520" grid="1" gridSize="10" guides="1" tooltips="1" connect="1" arrows="1" fold="1" page="1" pageScale="1" pageWidth="827" pageHeight="1169" math="0" shadow="0">
      <root>
        <mxCell id="0" />
        <mxCell id="1" parent="0" />
        <mxCell id="E0bcLdjp-abgSEFH89b_-12" style="edgeStyle=orthogonalEdgeStyle;rounded=0;orthogonalLoop=1;jettySize=auto;html=1;" edge="1" parent="1" source="E0bcLdjp-abgSEFH89b_-1">
          <mxGeometry relative="1" as="geometry">
            <mxPoint x="420" y="260" as="targetPoint" />
          </mxGeometry>
        </mxCell>
        <mxCell id="E0bcLdjp-abgSEFH89b_-17" style="edgeStyle=elbowEdgeStyle;rounded=0;orthogonalLoop=1;jettySize=auto;html=1;elbow=vertical;exitX=0.5;exitY=1;exitDx=0;exitDy=0;" edge="1" parent="1" source="E0bcLdjp-abgSEFH89b_-1">
          <mxGeometry relative="1" as="geometry">
            <mxPoint x="150" y="350" as="targetPoint" />
            <mxPoint x="290" y="330" as="sourcePoint" />
            <Array as="points">
              <mxPoint x="230" y="330" />
            </Array>
          </mxGeometry>
        </mxCell>
        <mxCell id="E0bcLdjp-abgSEFH89b_-1" value="EFI Driver" style="rounded=1;whiteSpace=wrap;html=1;" vertex="1" parent="1">
          <mxGeometry x="230" y="230" width="120" height="60" as="geometry" />
        </mxCell>
        <mxCell id="E0bcLdjp-abgSEFH89b_-4" value="NtosKrnl.exe" style="rounded=1;whiteSpace=wrap;html=1;" vertex="1" parent="1">
          <mxGeometry x="230" y="390" width="120" height="60" as="geometry" />
        </mxCell>
        <mxCell id="E0bcLdjp-abgSEFH89b_-27" style="edgeStyle=orthogonalEdgeStyle;rounded=0;orthogonalLoop=1;jettySize=auto;html=1;exitX=1;exitY=0.75;exitDx=0;exitDy=0;entryX=0;entryY=0.75;entryDx=0;entryDy=0;" edge="1" parent="1" source="E0bcLdjp-abgSEFH89b_-6" target="E0bcLdjp-abgSEFH89b_-20">
          <mxGeometry relative="1" as="geometry" />
        </mxCell>
        <mxCell id="E0bcLdjp-abgSEFH89b_-6" value="Legit Driver" style="rounded=1;whiteSpace=wrap;html=1;" vertex="1" parent="1">
          <mxGeometry x="420" y="350" width="120" height="60" as="geometry" />
        </mxCell>
        <mxCell id="E0bcLdjp-abgSEFH89b_-13" style="edgeStyle=orthogonalEdgeStyle;rounded=0;orthogonalLoop=1;jettySize=auto;html=1;entryX=0.5;entryY=0;entryDx=0;entryDy=0;" edge="1" parent="1" source="E0bcLdjp-abgSEFH89b_-11" target="E0bcLdjp-abgSEFH89b_-6">
          <mxGeometry relative="1" as="geometry" />
        </mxCell>
        <mxCell id="E0bcLdjp-abgSEFH89b_-14" value="Map Driver over .text section" style="edgeLabel;html=1;align=center;verticalAlign=middle;resizable=0;points=[];" vertex="1" connectable="0" parent="E0bcLdjp-abgSEFH89b_-13">
          <mxGeometry x="-0.3379" y="1" relative="1" as="geometry">
            <mxPoint as="offset" />
          </mxGeometry>
        </mxCell>
        <mxCell id="E0bcLdjp-abgSEFH89b_-11" value="Cheat Driver" style="ellipse;whiteSpace=wrap;html=1;" vertex="1" parent="1">
          <mxGeometry x="420" y="220" width="120" height="80" as="geometry" />
        </mxCell>
        <mxCell id="E0bcLdjp-abgSEFH89b_-18" value="" style="endArrow=classic;html=1;rounded=0;entryX=0.5;entryY=0;entryDx=0;entryDy=0;" edge="1" parent="1" target="E0bcLdjp-abgSEFH89b_-4">
          <mxGeometry width="50" height="50" relative="1" as="geometry">
            <mxPoint x="290" y="330" as="sourcePoint" />
            <mxPoint x="330" y="370" as="targetPoint" />
          </mxGeometry>
        </mxCell>
        <mxCell id="E0bcLdjp-abgSEFH89b_-19" value="&lt;span style=&quot;font-size: 11px; text-wrap: nowrap; background-color: rgb(255, 255, 255);&quot;&gt;Hook on NtCreateFile&lt;/span&gt;" style="rounded=1;whiteSpace=wrap;html=1;" vertex="1" parent="1">
          <mxGeometry x="90" y="350" width="120" height="60" as="geometry" />
        </mxCell>
        <mxCell id="E0bcLdjp-abgSEFH89b_-26" style="edgeStyle=orthogonalEdgeStyle;rounded=0;orthogonalLoop=1;jettySize=auto;html=1;exitX=0;exitY=0.25;exitDx=0;exitDy=0;entryX=1;entryY=0.25;entryDx=0;entryDy=0;" edge="1" parent="1" source="E0bcLdjp-abgSEFH89b_-20" target="E0bcLdjp-abgSEFH89b_-6">
          <mxGeometry relative="1" as="geometry" />
        </mxCell>
        <mxCell id="E0bcLdjp-abgSEFH89b_-20" value="Client" style="rounded=1;whiteSpace=wrap;html=1;" vertex="1" parent="1">
          <mxGeometry x="660" y="350" width="120" height="60" as="geometry" />
        </mxCell>
        <mxCell id="E0bcLdjp-abgSEFH89b_-22" value="Kernel/EFI" style="text;html=1;align=center;verticalAlign=middle;resizable=0;points=[];autosize=1;strokeColor=none;fillColor=none;" vertex="1" parent="1">
          <mxGeometry x="440" y="90" width="80" height="30" as="geometry" />
        </mxCell>
        <mxCell id="E0bcLdjp-abgSEFH89b_-23" value="UserMode" style="text;html=1;align=center;verticalAlign=middle;resizable=0;points=[];autosize=1;strokeColor=none;fillColor=none;" vertex="1" parent="1">
          <mxGeometry x="680" y="90" width="80" height="30" as="geometry" />
        </mxCell>
        <mxCell id="E0bcLdjp-abgSEFH89b_-30" value="&lt;span style=&quot;font-size: 11px; background-color: rgb(255, 255, 255);&quot;&gt;IOCTL&lt;/span&gt;" style="text;html=1;align=center;verticalAlign=middle;resizable=0;points=[];autosize=1;strokeColor=none;fillColor=none;" vertex="1" parent="1">
          <mxGeometry x="570" y="365" width="60" height="30" as="geometry" />
        </mxCell>
      </root>
    </mxGraphModel>
  </diagram>
</mxfile>
